<?xml version="1.0" standalone="no"?>
<!DOCTYPE svg PUBLIC "-//W3C//DTD SVG 20010904//EN"
 "http://www.w3.org/TR/2001/REC-SVG-20010904/DTD/svg10.dtd">
<svg version="1.0" xmlns="http://www.w3.org/2000/svg"
 width="512.000000pt" height="512.000000pt" viewBox="0 0 512.000000 512.000000"
 preserveAspectRatio="xMidYMid meet">
<metadata>
Created by potrace 1.11, written by Peter Selinger 2001-2013
</metadata>
<g transform="translate(0.000000,512.000000) scale(0.100000,-0.100000)"
fill="#000000" stroke="none">
<path d="M1435 4136 c-44 -12 -109 -37 -145 -56 -83 -44 -204 -165 -247 -245
-17 -33 -97 -220 -178 -415 -142 -343 -196 -473 -215 -515 -5 -11 -19 -45 -31
-75 -12 -30 -29 -73 -39 -95 -10 -22 -39 -92 -65 -155 -26 -63 -53 -128 -60
-145 -97 -217 -126 -324 -130 -485 -6 -234 50 -416 187 -602 127 -173 317
-301 536 -360 114 -31 343 -31 462 0 96 25 96 26 201 77 243 118 428 349 499
621 26 101 29 145 30 412 l0 213 53 23 c117 52 148 59 267 59 104 0 123 -3
201 -32 48 -18 94 -37 103 -44 13 -10 16 -45 17 -257 1 -197 5 -262 20 -332
67 -320 285 -579 590 -701 117 -47 223 -65 366 -62 138 3 153 5 258 36 152 45
293 131 406 247 141 145 225 305 264 502 20 102 13 300 -13 400 -17 63 -107
296 -157 405 -7 17 -23 55 -35 85 -12 30 -28 70 -36 88 -30 69 -44 103 -114
272 -40 96 -78 189 -85 205 -49 117 -73 174 -150 360 -115 278 -136 316 -225
405 -94 94 -180 142 -320 177 -48 12 -212 11 -270 -3 -167 -38 -335 -163 -416
-309 -31 -57 -86 -217 -82 -244 0 -3 0 -107 -1 -230 -1 -208 -2 -223 -18 -216
-157 62 -414 66 -573 10 -24 -8 -44 -14 -46 -13 -1 2 -4 113 -7 248 -2 135 -7
252 -9 260 -3 8 -10 35 -17 60 -44 152 -174 305 -324 379 -148 73 -299 89
-452 47z m-12 -1592 c235 -55 424 -246 484 -489 12 -49 10 -214 -3 -274 -49
-232 -248 -430 -486 -486 -58 -13 -221 -14 -273 -2 -114 28 -220 85 -298 161
-81 79 -101 106 -142 191 -157 324 -11 713 323 862 114 50 272 65 395 37z
m2607 -13 c168 -57 305 -175 379 -324 54 -108 70 -186 66 -312 -9 -286 -199
-522 -479 -594 -320 -82 -654 100 -761 414 -25 74 -30 109 -29 220 0 175 59
311 190 441 80 79 193 143 299 168 89 21 253 14 335 -13z"/>
<path d="M1215 2387 c-102 -47 -124 -192 -40 -266 19 -16 50 -32 70 -36 19 -3
52 -8 72 -11 53 -8 109 -68 118 -126 13 -87 17 -100 47 -134 54 -61 149 -68
217 -17 48 37 64 83 57 164 -20 235 -207 419 -440 435 -48 3 -81 0 -101 -9z"/>
<path d="M3775 2386 c-82 -36 -118 -145 -76 -224 17 -32 76 -73 110 -78 17 -2
44 -6 61 -8 35 -5 81 -36 103 -69 14 -22 19 -39 31 -119 7 -41 24 -66 67 -98
34 -24 48 -28 94 -27 93 4 149 62 152 157 6 244 -194 460 -441 476 -48 3 -81
0 -101 -10z"/>
</g>
</svg>
